<svg xmlns="http://www.w3.org/2000/svg" width="91.926" height="91.924" viewBox="0 0 91.926 91.924">
    <path id="Caminho_72" data-name="Caminho 72"
        d="M51.6,32.5a1.034,1.034,0,0,1-1.034,1.034H33.533V50.565a1.034,1.034,0,0,1-2.067,0V33.533H14.435a1.034,1.034,0,0,1,0-2.067H31.466V14.435a1.034,1.034,0,0,1,2.067,0V31.466H50.565A1.034,1.034,0,0,1,51.6,32.5Zm13.4,0A32.5,32.5,0,1,1,32.5,0,32.5,32.5,0,0,1,65,32.5Zm-2.067,0A30.433,30.433,0,1,0,32.5,62.933,30.467,30.467,0,0,0,62.933,32.5Z"
        transform="translate(45.963) rotate(45)" fill="#53565a" />
</svg>

