<svg xmlns="http://www.w3.org/2000/svg" width="58.553" height="40.17" viewBox="0 0 58.553 40.17">
  <g id="Group_1059" data-name="Group 1059" transform="translate(-116.424 -103.33)">
    <path id="Path_1116" data-name="Path 1116" d="M157.555,115.695h17.422v-6.131a6.234,6.234,0,0,0-6.234-6.234H157.555Z" fill="#fff"/>
    <rect id="Rectangle_3723" data-name="Rectangle 3723" width="17.422" height="12.44" transform="translate(157.555 116.695)" fill="#fff"/>
    <path id="Path_1117" data-name="Path 1117" d="M157.555,130.135V143h-1V103.33H134.846V143h-1V130.135H116.424v7.131a6.234,6.234,0,0,0,6.234,6.234h46.085a6.234,6.234,0,0,0,6.234-6.234v-7.131Z" fill="#fff"/>
    <path id="Path_1118" data-name="Path 1118" d="M133.846,103.33H122.658a6.234,6.234,0,0,0-6.234,6.234v6.131h17.422Z" fill="#fff"/>
    <rect id="Rectangle_3724" data-name="Rectangle 3724" width="17.422" height="12.44" transform="translate(116.424 116.695)" fill="#fff"/>
  </g>
</svg>
